<?xml version="1.0" encoding="utf-8"?>
<!-- Generator: Adobe Illustrator 23.0.0, SVG Export Plug-In . SVG Version: 6.00 Build 0)  -->
<svg version="1.1" id="Layer_1" xmlns="http://www.w3.org/2000/svg" xmlns:xlink="http://www.w3.org/1999/xlink" x="0px" y="0px"
	 viewBox="0 0 800 500" style="enable-background:new 0 0 800 500;" xml:space="preserve">
<style type="text/css">
	.st0{fill:none;stroke:#FFFFFF;stroke-width:3;stroke-miterlimit:10;}
</style>
<g>
	<circle class="st0" cx="902.61" cy="146.13" r="37.61"/>
	<line class="st0" x1="931.74" y1="169.72" x2="959.16" y2="195.46"/>
</g>
<g>
	<polygon class="st0" points="1112.89,630.25 998.07,630.25 1021.4,547.93 1088.63,547.93 	"/>
	<path class="st0" d="M1035.13,559.63v-16.71c0-13.22,9.15-23.93,20.43-23.93l0,0c11.28,0,20.43,10.71,20.43,23.93v16.71"/>
</g>
<ellipse transform="matrix(0.9732 -0.2298 0.2298 0.9732 -46.9819 283.7112)" class="st0" cx="1194.85" cy="343.61" rx="32.55" ry="32.55"/>
<path class="st0" d="M1216.5,380.22c-6.35,3.77-13.75,5.94-21.65,5.94s-15.3-2.17-21.65-5.94c-34.75,9.5-60.31,41.28-60.31,79.05
	h163.91C1276.8,421.5,1251.25,389.72,1216.5,380.22z"/>
<g>
	<line class="st0" x1="350.13" y1="326.47" x2="364.42" y2="326.47"/>
	<line class="st0" x1="403.85" y1="239.52" x2="480.8" y2="239.25"/>
	<line class="st0" x1="350.01" y1="239.72" x2="364.42" y2="239.33"/>
	<line class="st0" x1="350.07" y1="282.96" x2="437.16" y2="282.59"/>
	<line class="st0" x1="403.21" y1="326.28" x2="480.92" y2="326"/>
	<circle class="st0" cx="381.9" cy="239.33" r="17.48"/>
	<path class="st0" d="M364.42,326.13c0-9.66,7.83-17.48,17.48-17.48c9.66,0,17.48,7.83,17.48,17.48s-7.83,17.48-17.48,17.48
		C372.24,343.61,364.42,335.78,364.42,326.13"/>
	<circle class="st0" cx="454.65" cy="282.59" r="17.48"/>
	<path class="st0" d="M403.85,239.52"/>
	<path class="st0" d="M400.15,239.54"/>
	<line class="st0" x1="475.6" y1="282.51" x2="480.86" y2="282.49"/>
</g>
</svg>
