<?xml version="1.0" encoding="utf-8"?>
<!-- Generator: Adobe Illustrator 16.0.0, SVG Export Plug-In . SVG Version: 6.00 Build 0)  -->
<!DOCTYPE svg PUBLIC "-//W3C//DTD SVG 1.1//EN" "http://www.w3.org/Graphics/SVG/1.1/DTD/svg11.dtd">
<svg version="1.1" id="Layer_1" xmlns="http://www.w3.org/2000/svg" xmlns:xlink="http://www.w3.org/1999/xlink" x="0px" y="0px"
	 width="50px" height="50px" viewBox="0 0 50 50" enable-background="new 0 0 50 50" xml:space="preserve">
<g>
	
		<rect x="900.341" y="1015.521" fill="none" stroke="#444444" stroke-width="2" stroke-miterlimit="10" width="16.771" height="18.132"/>
	<path fill="none" stroke="#444444" stroke-width="2" stroke-miterlimit="10" d="M903.848,1014.912c0-4.052,2.185-7.336,4.879-7.336
		s4.88,3.284,4.88,7.336"/>
</g>
<path fill="#444444" d="M81.592,69.522c-0.14-4.485-2.661-7.946-5.865-7.946c-3.204,0-5.726,3.461-5.866,7.946h-3.52v20.13h18.771
	v-20.13H81.592z M75.727,63.576c2.022,0,3.737,2.686,3.866,5.946H71.86C71.988,66.262,73.704,63.576,75.727,63.576z M83.111,87.652
	H68.341v-16.13h14.771V87.652z"/>
</svg>
