<?xml version="1.0" encoding="utf-8"?>
<!-- Generator: Adobe Illustrator 23.0.0, SVG Export Plug-In . SVG Version: 6.00 Build 0)  -->
<svg version="1.1" id="Layer_1" xmlns="http://www.w3.org/2000/svg" xmlns:xlink="http://www.w3.org/1999/xlink" x="0px" y="0px"
	 viewBox="0 0 800 500" style="enable-background:new 0 0 800 500;" xml:space="preserve">
<style type="text/css">
	.st0{fill:none;stroke:#FFFFFF;stroke-width:3;stroke-miterlimit:10;}
</style>
<rect width="800" height="500"/>
<g>
	<circle class="st0" cx="-361.55" cy="187.94" r="37.61"/>
	<line class="st0" x1="-332.42" y1="211.54" x2="-305.01" y2="237.28"/>
</g>
<g>
	<polygon class="st0" points="1090.64,508.1 975.82,508.1 999.15,425.78 1066.38,425.78 	"/>
	<path class="st0" d="M1012.88,437.49v-16.71c0-13.22,9.15-23.93,20.43-23.93h0c11.28,0,20.43,10.71,20.43,23.93v16.71"/>
</g>
<ellipse transform="matrix(0.9732 -0.2298 0.2298 0.9732 -40.2054 95.6754)" class="st0" cx="390.76" cy="220.49" rx="32.55" ry="32.55"/>
<path class="st0" d="M412.4,257.1c-6.35,3.77-13.75,5.94-21.65,5.94c-7.9,0-15.3-2.17-21.65-5.94
	c-34.75,9.5-60.31,41.28-60.31,79.05h163.91C472.71,298.38,447.16,266.6,412.4,257.1z"/>
<g>
	<line class="st0" x1="-516.34" y1="379.71" x2="-502.06" y2="379.71"/>
	<line class="st0" x1="-462.62" y1="292.76" x2="-385.67" y2="292.48"/>
	<line class="st0" x1="-516.46" y1="292.95" x2="-502.06" y2="292.57"/>
	<line class="st0" x1="-516.4" y1="336.2" x2="-429.31" y2="335.83"/>
	<line class="st0" x1="-463.26" y1="379.52" x2="-385.55" y2="379.24"/>
	<circle class="st0" cx="-484.57" cy="292.57" r="17.48"/>
	<path class="st0" d="M-502.06,379.36c0-9.66,7.83-17.48,17.48-17.48c9.66,0,17.48,7.83,17.48,17.48c0,9.66-7.83,17.48-17.48,17.48
		C-494.23,396.85-502.06,389.02-502.06,379.36"/>
	<circle class="st0" cx="-411.83" cy="335.83" r="17.48"/>
	<path class="st0" d="M-462.62,292.76"/>
	<path class="st0" d="M-466.32,292.77"/>
	<line class="st0" x1="-390.88" y1="335.75" x2="-385.61" y2="335.73"/>
</g>
</svg>
